<?xml version="1.0" encoding="utf-8"?>
<!-- Generator: Adobe Illustrator 16.0.0, SVG Export Plug-In . SVG Version: 6.00 Build 0)  -->
<!DOCTYPE svg PUBLIC "-//W3C//DTD SVG 1.1//EN" "http://www.w3.org/Graphics/SVG/1.1/DTD/svg11.dtd">
<svg version="1.1" id="Layer_1" xmlns="http://www.w3.org/2000/svg" xmlns:xlink="http://www.w3.org/1999/xlink" x="0px" y="0px"
	 width="32px" height="32px" viewBox="0 0 32 32" enable-background="new 0 0 32 32" xml:space="preserve">
<path fill-rule="evenodd" clip-rule="evenodd" d="M15.196,13.601h2.267h0.094v0.051v3.193v0.051h-0.094h-2.267h-0.092v-0.051v-3.193
	v-0.051H15.196z M0.895,7.711l13.173,0.964V8.634c0-0.146,0.062-0.282,0.172-0.377c0.247,1.014,1.152,1.766,2.247,1.766
	c1.025,0,1.888-0.68,2.199-1.599c0.025,0.063,0.043,0.137,0.043,0.21v0.041l12.37-0.964l0.385,0.23L20.798,9.438v2.123h0.051v-0.166
	h0.102v-0.043c0-0.124,0.102-0.229,0.23-0.229l0,0c0.129,0,0.23,0.105,0.23,0.229v0.504c0,0.124-0.102,0.228-0.23,0.228l0,0
	c-0.129,0-0.23-0.104-0.23-0.228v-0.042h-0.102v-0.201h-0.051v0.125h-0.197v-0.125h-0.043v0.201h-0.111v0.042
	c0,0.124-0.105,0.228-0.225,0.228l0,0c-0.125,0-0.229-0.104-0.229-0.228v-0.504c0-0.124,0.104-0.229,0.229-0.229l0,0
	c0.119,0,0.225,0.105,0.225,0.229v0.043h0.111v0.166h0.043V9.458l-1.872,0.21c-0.043,0.251-0.256,0.438-0.506,0.438h-1.675v1.121
	h0.035v-0.105h0.061v-0.031c0-0.072,0.058-0.137,0.145-0.137l0,0c0.077,0,0.145,0.064,0.145,0.137v0.325
	c0,0.081-0.067,0.145-0.145,0.145l0,0c-0.087,0-0.145-0.063-0.145-0.145v-0.034h-0.061v-0.123h-0.035v0.084h-0.129v-0.084h-0.023
	v0.123h-0.078v0.034c0,0.081-0.06,0.145-0.146,0.145l0,0c-0.068,0-0.137-0.063-0.137-0.145v-0.325c0-0.072,0.068-0.137,0.137-0.137
	l0,0c0.086,0,0.146,0.064,0.146,0.137v0.031h0.078v0.105h0.023v-1.121h-1.838c-0.254,0-0.47-0.188-0.502-0.438l-1.593-0.18v2.072
	h0.053v-0.166h0.11v-0.043c0-0.124,0.104-0.229,0.23-0.229l0,0c0.121,0,0.23,0.105,0.23,0.229v0.504c0,0.124-0.109,0.228-0.23,0.228
	l0,0c-0.126,0-0.23-0.104-0.23-0.228v-0.042h-0.11v-0.201h-0.053v0.125h-0.188v-0.125h-0.053v0.201h-0.101v0.042
	c0,0.124-0.103,0.228-0.231,0.228l0,0c-0.128,0-0.23-0.104-0.23-0.228v-0.504c0-0.124,0.103-0.229,0.23-0.229l0,0
	c0.129,0,0.231,0.105,0.231,0.229v0.043h0.101v0.166h0.053v-2.09L0.517,7.941L0.895,7.711z M22.755,9.24
	c0.479,0,0.881,0.397,0.881,0.876c0,0.492-0.402,0.889-0.881,0.889c-0.496,0-0.889-0.396-0.889-0.889
	C21.866,9.638,22.259,9.24,22.755,9.24L22.755,9.24z M22.755,9.544c0.307,0,0.564,0.261,0.564,0.572
	c0,0.324-0.258,0.578-0.564,0.578c-0.328,0-0.582-0.254-0.582-0.578C22.173,9.805,22.427,9.544,22.755,9.544L22.755,9.544z
	 M10.36,9.257c0.485,0,0.888,0.401,0.888,0.881c0,0.491-0.402,0.891-0.888,0.891c-0.488,0-0.882-0.399-0.882-0.891
	C9.478,9.658,9.872,9.257,10.36,9.257L10.36,9.257z M10.36,9.565c0.322,0,0.571,0.26,0.571,0.572c0,0.324-0.249,0.578-0.571,0.578
	c-0.317,0-0.565-0.254-0.565-0.578C9.794,9.825,10.042,9.565,10.36,9.565L10.36,9.565z M16.736,5.474
	c0.881,0.104,1.616,0.71,1.879,1.527l4.157-0.262l0.135,0.082l-4.214,0.461c0.018,0.137,0.035,0.282,0.035,0.429
	c0,1.233-1.01,2.252-2.242,2.252c-1.247,0-2.247-1.019-2.247-2.252c0-0.146,0.009-0.292,0.034-0.429l-4.188-0.461l0.135-0.082
	l4.13,0.262c0.264-0.817,0.992-1.424,1.87-1.527l0.266-5.158L16.736,5.474z M15.18,6.603h2.556l0.36,0.615h-3.232L15.18,6.603z
	 M11.651,13.442L11.651,13.442c0.442,0.094,0.725,0.547,0.632,0.986l-2.18,14.913c-0.092,0.454-0.547,0.735-0.983,0.637l0,0
	c-0.452-0.102-0.725-0.543-0.64-0.983l2.178-14.925C10.759,13.634,11.204,13.349,11.651,13.442L11.651,13.442z M15.196,23.841h2.07
	h0.087v0.074v4.428v0.072h-0.087h-2.07h-0.092v-0.072v-4.428v-0.074H15.196z M15.196,18.081h2.07h0.087v0.072v4.424v0.072h-0.087
	h-2.07h-0.092v-0.072v-4.424v-0.072H15.196z M20.438,13.526L20.438,13.526c-0.438,0.115-0.711,0.566-0.609,1.006l2.014,14.853
	c0.119,0.441,0.563,0.711,1.01,0.594l0,0c0.434-0.102,0.709-0.55,0.598-0.99l-2.004-14.854
	C21.343,13.694,20.882,13.425,20.438,13.526L20.438,13.526z"/>
</svg>
