<?xml version="1.0" encoding="utf-8"?>
<!-- Generator: Adobe Illustrator 16.0.0, SVG Export Plug-In . SVG Version: 6.00 Build 0)  -->
<!DOCTYPE svg PUBLIC "-//W3C//DTD SVG 1.1//EN" "http://www.w3.org/Graphics/SVG/1.1/DTD/svg11.dtd">
<svg version="1.1" id="Layer_1" xmlns="http://www.w3.org/2000/svg" xmlns:xlink="http://www.w3.org/1999/xlink" x="0px" y="0px"
	 width="32px" height="32px" viewBox="0 0 32 32" enable-background="new 0 0 32 32" xml:space="preserve">
<path fill-rule="evenodd" clip-rule="evenodd" d="M31.041,18.981c-0.577,1.447-1.531,2.753-2.779,3.76
	c0.282-1.315,0.373-2.711,0.261-4.148l3.014-1.283C31.433,17.884,31.266,18.445,31.041,18.981L31.041,18.981z M22.062,18.009
	c-0.229-0.104-0.496-0.13-0.808-0.08c-0.693-0.415-1.233-0.242-2.576,0.133c-2.917,1.364-5.798,2.715-8.628,4.247
	c-1.219,0.069-2.439,0.141-3.661,0.212c-1.555-0.834-3.167-1.658-4.716-2.479c-0.4,0.195-0.688,0.343-1.052,0.521
	c1.146,1.539,2.313,3.075,3.491,4.65c-0.983,0.148-1.875,0.3-2.849,0.445c-0.192,0.033-0.446,0.126-0.45,0.191
	c1.019,0.057,2.075,0.131,3.095,0.187c0.206,0.353,0.515,0.54,0.648,0.565c1.396-0.219,2.779-0.481,4.152-0.764
	c1.159-0.257,7.653-2.582,8.14-3.035c0.019,0.141,0.074,0.248,0.134,0.312c0.063,0.056,0.15,0.068,0.239,0.046
	c0.159-0.026,0.198-0.036,0.36-0.063c0.035,0.05,0.163,0.158,0.246,0.122c0.781-0.143,2.112-1.047,2.269-1.316
	c0.146-0.21-0.08-0.914-0.591-1.113c1.023-0.665,2.172-1.047,2.632-2.479C22.168,18.161,22.189,18.151,22.062,18.009L22.062,18.009z
	 M22.057,18.241l-0.505-0.169l-0.4,0.139l0.504,0.167L22.057,18.241z M19.04,19.126l-0.058,0.017
	c-0.02,0.008-0.029,0.028-0.021,0.048l0.071,0.184c0.008,0.021,0.028,0.029,0.05,0.02l0.057-0.018
	c0.02-0.009,0.028-0.028,0.02-0.048l-0.068-0.184C19.083,19.123,19.062,19.117,19.04,19.126L19.04,19.126z M16.736,20.335
	l-0.059,0.016c-0.021,0.01-0.027,0.03-0.021,0.051l0.073,0.183c0.007,0.021,0.027,0.029,0.048,0.02l0.058-0.017
	c0.022-0.009,0.03-0.029,0.022-0.05l-0.073-0.183C16.776,20.335,16.757,20.327,16.736,20.335L16.736,20.335z M9.515,24.082
	L9.45,24.101c-0.012,0.006-0.029,0.03-0.021,0.05L9.5,24.334c0.008,0.02,0.029,0.027,0.053,0.027l0.061-0.027
	c0.015-0.006,0.03-0.03,0.021-0.05l-0.07-0.184C9.555,24.081,9.534,24.073,9.515,24.082L9.515,24.082z M9.844,23.918l-0.057,0.016
	c-0.021,0.008-0.029,0.028-0.029,0.052l0.081,0.188c0,0.018,0.029,0.027,0.042,0.021l0.063-0.026
	c0.011-0.006,0.029-0.027,0.022-0.041l-0.073-0.191C9.887,23.923,9.866,23.908,9.844,23.918L9.844,23.918z M10.188,23.744
	l-0.057,0.018c-0.022,0.009-0.03,0.028-0.021,0.051l0.069,0.181c0.009,0.022,0.029,0.03,0.054,0.028l0.056-0.024
	c0.019-0.008,0.028-0.027,0.022-0.042l-0.073-0.19C10.229,23.744,10.21,23.736,10.188,23.744L10.188,23.744z M10.512,23.583
	l-0.064,0.021c-0.021,0.009-0.03,0.027-0.022,0.05l0.073,0.188c0.005,0.014,0.029,0.029,0.051,0.021l0.055-0.024
	c0.021-0.008,0.028-0.027,0.023-0.042l-0.074-0.188C10.543,23.585,10.524,23.578,10.512,23.583L10.512,23.583z M10.822,23.395
	l-0.055,0.023c-0.021,0.007-0.028,0.028-0.03,0.044l0.074,0.189c0.008,0.021,0.035,0.025,0.048,0.02l0.065-0.02
	c0.014-0.006,0.029-0.026,0.019-0.048l-0.072-0.19C10.866,23.4,10.844,23.384,10.822,23.395L10.822,23.395z M11.166,23.223
	l-0.063,0.02c-0.016,0.007-0.031,0.028-0.022,0.049l0.071,0.183c0.007,0.021,0.029,0.029,0.053,0.028l0.055-0.025
	c0.019-0.007,0.029-0.028,0.031-0.045l-0.08-0.187C11.206,23.221,11.18,23.217,11.166,23.223L11.166,23.223z M11.494,23.067
	l-0.067,0.02c-0.018,0.008-0.028,0.028-0.021,0.049l0.073,0.183c0.006,0.021,0.027,0.028,0.05,0.027l0.056-0.024
	c0.02-0.009,0.029-0.027,0.019-0.049l-0.068-0.183C11.526,23.069,11.504,23.062,11.494,23.067L11.494,23.067z M11.8,22.903
	l-0.06,0.018c-0.021,0.01-0.03,0.027-0.025,0.053l0.076,0.18c0.001,0.024,0.029,0.028,0.045,0.03l0.063-0.028
	c0.014-0.006,0.029-0.026,0.021-0.041l-0.071-0.19C11.84,22.902,11.822,22.895,11.8,22.903L11.8,22.903z M12.099,22.743
	l-0.055,0.024c-0.025,0.002-0.031,0.021-0.022,0.04l0.073,0.191c0.004,0.014,0.028,0.03,0.049,0.021l0.055-0.023
	c0.023-0.002,0.031-0.021,0.023-0.043l-0.073-0.189C12.145,22.749,12.12,22.735,12.099,22.743L12.099,22.743z M12.428,22.578
	l-0.053,0.024c-0.023,0.01-0.03,0.027-0.025,0.041l0.073,0.19c0.009,0.021,0.03,0.028,0.049,0.021l0.061-0.018
	c0.019-0.008,0.028-0.028,0.019-0.049l-0.07-0.183C12.473,22.584,12.449,22.57,12.428,22.578L12.428,22.578z M12.728,22.435
	l-0.059,0.017c-0.02,0.009-0.028,0.028-0.02,0.049l0.071,0.184c0.008,0.021,0.029,0.029,0.041,0.023l0.064-0.02
	c0.022-0.01,0.029-0.029,0.022-0.05l-0.071-0.183C12.77,22.435,12.748,22.426,12.728,22.435L12.728,22.435z M13.051,22.272
	l-0.066,0.019c-0.022,0.011-0.03,0.03-0.021,0.05l0.073,0.184c0.008,0.02,0.025,0.03,0.05,0.026l0.056-0.023
	c0.022-0.009,0.031-0.027,0.02-0.05l-0.069-0.182C13.084,22.273,13.064,22.268,13.051,22.272L13.051,22.272z M13.342,22.109
	l-0.057,0.022c-0.022,0.003-0.038,0.024-0.029,0.045l0.071,0.19c0.006,0.014,0.037,0.024,0.049,0.02l0.063-0.026
	c0.016,0.001,0.029-0.027,0.024-0.042l-0.074-0.19C13.385,22.114,13.362,22.101,13.342,22.109L13.342,22.109z M13.657,21.949
	l-0.063,0.026c-0.013,0.007-0.029,0.029-0.021,0.05l0.07,0.183c0.01,0.02,0.028,0.029,0.051,0.02l0.064-0.019
	c0.014-0.006,0.029-0.029,0.019-0.049l-0.067-0.184C13.7,21.956,13.68,21.947,13.657,21.949L13.657,21.949z M13.943,21.778
	l-0.056,0.023c-0.02,0.008-0.03,0.029-0.024,0.043l0.074,0.189c0.01,0.021,0.028,0.028,0.049,0.02l0.06-0.016
	c0.021-0.01,0.03-0.029,0.021-0.05l-0.072-0.184C13.986,21.784,13.964,21.769,13.943,21.778L13.943,21.778z M14.321,21.576
	l-0.054,0.022c-0.021,0.008-0.029,0.03-0.03,0.046l0.079,0.188c0.003,0.022,0.029,0.027,0.044,0.021l0.065-0.02
	c0.02-0.008,0.028-0.028,0.019-0.048l-0.072-0.191C14.366,21.582,14.343,21.567,14.321,21.576L14.321,21.576z M14.646,21.414
	l-0.06,0.017c-0.02,0.009-0.03,0.029-0.02,0.049l0.07,0.183c0.01,0.021,0.03,0.028,0.053,0.026l0.055-0.021
	c0.023-0.011,0.029-0.03,0.025-0.044l-0.073-0.189C14.685,21.412,14.667,21.403,14.646,21.414L14.646,21.414z M15.045,21.219
	l-0.064,0.021c-0.022,0.009-0.03,0.028-0.021,0.048l0.071,0.185c0.008,0.02,0.028,0.027,0.05,0.019l0.058-0.017
	c0.02-0.008,0.027-0.028,0.02-0.048l-0.072-0.186C15.08,21.221,15.06,21.213,15.045,21.219L15.045,21.219z M15.309,21.073
	l-0.055,0.024c-0.022,0.01-0.028,0.027-0.022,0.041l0.074,0.189c0.009,0.021,0.026,0.03,0.047,0.02l0.06-0.016
	c0.018-0.008,0.03-0.027,0.019-0.05l-0.069-0.182C15.354,21.079,15.332,21.071,15.309,21.073L15.309,21.073z M15.604,20.94
	l-0.059,0.016c-0.02,0.01-0.028,0.029-0.02,0.051l0.071,0.182c0.009,0.021,0.028,0.03,0.043,0.024l0.063-0.021
	c0.022-0.01,0.03-0.029,0.02-0.05l-0.068-0.183C15.646,20.938,15.626,20.931,15.604,20.94L15.604,20.94z M15.873,20.803
	l-0.061,0.023c-0.015,0.007-0.032,0.03-0.023,0.052l0.071,0.183c0.008,0.021,0.028,0.028,0.048,0.019l0.06-0.017
	c0.021-0.009,0.026-0.028,0.026-0.053l-0.078-0.178C15.916,20.807,15.891,20.803,15.873,20.803L15.873,20.803z M16.162,20.637
	L16.1,20.657c-0.016,0.006-0.032,0.028-0.023,0.048l0.069,0.184c0.009,0.021,0.037,0.025,0.051,0.02l0.065-0.02
	c0.012-0.004,0.03-0.028,0.019-0.05l-0.07-0.182C16.203,20.638,16.183,20.628,16.162,20.637L16.162,20.637z M16.429,20.5
	l-0.061,0.025c-0.02,0.009-0.028,0.028-0.023,0.04l0.074,0.191c0.008,0.02,0.027,0.03,0.046,0.02l0.061-0.016
	c0.02-0.009,0.029-0.029,0.02-0.05l-0.071-0.183C16.467,20.507,16.446,20.499,16.429,20.5L16.429,20.5z M17.048,20.162l-0.057,0.023
	c-0.024,0.002-0.032,0.022-0.023,0.043l0.074,0.188c0.005,0.016,0.029,0.028,0.041,0.023l0.063-0.026
	c0.023-0.002,0.033-0.022,0.023-0.041l-0.074-0.19C17.09,20.169,17.068,20.154,17.048,20.162L17.048,20.162z M17.361,20.02
	l-0.058,0.017c-0.021,0.008-0.029,0.029-0.02,0.05l0.07,0.184c0.008,0.02,0.029,0.027,0.042,0.022l0.065-0.021
	c0.021-0.008,0.031-0.028,0.022-0.05l-0.07-0.182C17.403,20.019,17.382,20.011,17.361,20.02L17.361,20.02z M17.66,19.835
	l-0.067,0.021c-0.02,0.008-0.029,0.027-0.02,0.05l0.07,0.182c0.01,0.021,0.029,0.029,0.053,0.027l0.056-0.023
	c0.021-0.009,0.028-0.028,0.024-0.042l-0.075-0.191C17.694,19.837,17.674,19.829,17.66,19.835L17.66,19.835z M17.928,19.698
	l-0.059,0.015c-0.02,0.01-0.028,0.03-0.02,0.049l0.069,0.185c0.009,0.021,0.031,0.028,0.051,0.021l0.057-0.018
	c0.021-0.01,0.03-0.028,0.021-0.049l-0.07-0.184C17.966,19.696,17.95,19.688,17.928,19.698L17.928,19.698z M18.219,19.557
	l-0.06,0.018c-0.019,0.009-0.027,0.027-0.018,0.047l0.069,0.185c0.004,0.022,0.031,0.036,0.046,0.028l0.063-0.026
	c0.02-0.008,0.026-0.028,0.021-0.042l-0.073-0.189C18.259,19.555,18.239,19.549,18.219,19.557L18.219,19.557z M18.489,19.425
	l-0.063,0.019c-0.021,0.01-0.029,0.029-0.021,0.05l0.07,0.183c0.009,0.021,0.026,0.03,0.05,0.028l0.057-0.024
	c0.021-0.01,0.027-0.029,0.027-0.053l-0.076-0.18C18.529,19.426,18.503,19.419,18.489,19.425L18.489,19.425z M18.775,19.255
	l-0.065,0.019c-0.013,0.006-0.025,0.026-0.017,0.049l0.069,0.185c0.009,0.019,0.034,0.026,0.051,0.026l0.063-0.028
	c0.012-0.006,0.028-0.027,0.022-0.041l-0.071-0.19C18.818,19.252,18.797,19.245,18.775,19.255L18.775,19.255z M2.234,20.955
	l3.331,2.315l0.065-0.093l-3.329-2.315L2.234,20.955z M1.779,21.5l3.33,2.316l0.067-0.094L1.842,21.4L1.779,21.5z M1.696,21.056
	l3.331,2.313l0.074-0.097l-3.336-2.321L1.696,21.056z M24.405,24.579L24.405,24.579c-1.225-0.662-2.378-1.553-3.404-2.661
	c0.004-0.041,0.011-0.086,0.015-0.128l3.15-1.342l1.587,3.729C25.311,24.35,24.854,24.486,24.405,24.579L24.405,24.579z
	 M20.733,10.591L20.733,10.591L19.149,6.87c0.365-0.14,0.725-0.252,1.095-0.345c1.268,0.677,2.469,1.612,3.531,2.769L20.733,10.591z
	 M24.241,9.832L24.241,9.832c0.88,1.049,1.64,2.252,2.245,3.597l-3.847,1.638l-1.641-3.853L24.241,9.832z M20.084,10.867
	L20.084,10.867L16.84,12.25c-0.096-1.545,0.055-3.039,0.434-4.411c0.378-0.261,0.795-0.493,1.224-0.692L20.084,10.867z
	 M20.349,11.49L20.349,11.49l1.643,3.853l-4.049,1.725c-0.549-1.368-0.895-2.749-1.044-4.106L20.349,11.49z M17.315,17.335
	L17.315,17.335l-3.516,1.497c-0.542-1.427-0.714-2.89-0.561-4.313l3.007-1.28C16.418,14.596,16.767,15.974,17.315,17.335
	L17.315,17.335z M20.313,16.818l1.953-0.831l1.634,3.839l-3.003,1.279c-0.014-0.034-0.029-0.07-0.04-0.098
	c0.219-0.135,0.432-0.267,0.644-0.422c0.71-0.522,1.199-1.156,1.47-1.999l0.019-0.057l0.008-0.053
	c0.082-0.443,0.027-0.713-0.287-1.063l-0.121-0.127l-0.161-0.079c-0.315-0.144-0.656-0.194-1.003-0.178
	C21.051,16.862,20.684,16.807,20.313,16.818L20.313,16.818z M24.815,20.172L24.815,20.172l3.043-1.296
	c0.102,1.565-0.051,3.085-0.449,4.473c-0.323,0.203-0.651,0.384-1.007,0.552L24.815,20.172z M24.549,19.549L24.549,19.549
	l-1.635-3.838l3.846-1.64c0.549,1.361,0.887,2.735,1.041,4.093L24.549,19.549z M27.382,13.807L27.382,13.807l3.722-1.585
	c0.552,1.434,0.718,2.914,0.554,4.349l-0.018-0.041l-3.187,1.358C28.279,16.53,27.935,15.158,27.382,13.807L27.382,13.807z
	 M27.108,13.163L27.108,13.163c-0.594-1.34-1.348-2.547-2.207-3.611l3.208-1.366c1.135,0.874,2.074,2.011,2.72,3.393L27.108,13.163z
	 M27.456,7.728L27.456,7.728l-3.015,1.284c-0.956-1.073-2.032-1.963-3.169-2.678c1.597-0.206,3.192,0.012,4.634,0.591
	C26.448,7.143,26.963,7.415,27.456,7.728L27.456,7.728z M13.856,12.058L13.856,12.058c0.549-1.361,1.421-2.592,2.56-3.566
	c-0.265,1.28-0.353,2.651-0.242,4.041l-2.815,1.199C13.476,13.159,13.637,12.601,13.856,12.058L13.856,12.058z M20.681,22.57
	c0.818,0.852,1.717,1.581,2.659,2.178c-1.492,0.144-2.983-0.078-4.347-0.635c-0.157-0.056-0.311-0.13-0.462-0.195
	C19.253,23.635,20.221,23.085,20.681,22.57L20.681,22.57z"/>
</svg>
